<?xml version="1.0" standalone="no"?>
<!DOCTYPE svg PUBLIC "-//W3C//DTD SVG 20010904//EN"
 "http://www.w3.org/TR/2001/REC-SVG-20010904/DTD/svg10.dtd">
<svg version="1.0" xmlns="http://www.w3.org/2000/svg"
 width="16.000000pt" height="16.000000pt" viewBox="0 0 16.000000 16.000000"
 preserveAspectRatio="xMidYMid meet">
<metadata>
Created by potrace 1.11, written by Peter Selinger 2001-2013
</metadata>
<g transform="translate(0.000000,16.000000) scale(0.000485,-0.000485)"
fill="#000000" stroke="none">
<path d="M14626 22603 c-1 -1 -26 -4 -56 -7 -31 -3 -99 -17 -152 -30 -373 -95
-695 -412 -794 -780 -30 -114 -33 -145 -34 -295 0 -309 101 -564 305 -766 224
-222 482 -335 775 -338 69 -1 154 2 190 6 484 59 901 470 957 944 33 281 -26
543 -174 765 -139 210 -415 413 -629 463 -10 2 -37 9 -59 14 -65 16 -318 35
-329 24z m254 -322 c150 -35 269 -100 375 -205 106 -104 194 -254 219 -371 3
-16 9 -41 12 -55 10 -49 12 -226 2 -290 -26 -171 -99 -311 -233 -445 -75 -75
-106 -98 -185 -138 -115 -57 -185 -76 -310 -85 -229 -17 -445 65 -611 231
-162 163 -234 346 -231 591 2 157 44 298 127 426 45 70 149 176 218 223 87 60
228 115 337 130 49 6 236 -1 280 -12z"/>
<path d="M11478 22562 c-12 -2 11 -50 95 -195 60 -106 118 -205 127 -222 30
-53 291 -505 363 -630 38 -66 76 -131 83 -145 11 -20 14 -113 14 -487 l0 -462
163 2 162 2 0 461 1 460 138 240 c77 131 147 253 156 269 9 17 42 73 72 125
30 52 66 115 80 140 14 25 76 132 137 239 62 106 110 195 107 198 -3 3 -86 6
-184 7 l-179 1 -169 -295 c-93 -162 -173 -302 -179 -312 -5 -9 -38 -67 -73
-128 -34 -60 -66 -110 -70 -110 -4 0 -25 33 -47 72 -48 87 -95 170 -122 218
-213 373 -307 537 -314 544 -7 8 -324 15 -361 8z"/>
<path d="M16604 22555 c-5 -16 4 -1507 9 -1535 54 -279 246 -501 513 -594 105
-37 274 -53 380 -35 100 16 118 20 193 49 198 77 366 246 438 440 47 128 47
121 49 920 2 415 -1 757 -6 760 -6 4 -278 5 -311 1 -4 -1 -6 -313 -7 -693 0
-381 -3 -713 -7 -738 -4 -25 -8 -54 -9 -65 -22 -175 -161 -327 -337 -365 -72
-16 -219 -8 -284 15 -102 36 -186 111 -236 211 -57 115 -60 157 -60 932 -1
527 -4 702 -12 703 -86 6 -310 2 -313 -6z"/>
<path d="M19087 22562 c-16 -3 -17 -80 -17 -1072 l0 -1068 163 1 162 2 0 430
c-1 287 3 432 10 437 32 23 41 14 167 -167 19 -27 137 -197 262 -376 l227
-326 194 -1 c107 0 195 4 195 8 0 5 -146 209 -324 454 -178 245 -321 448 -318
450 4 2 27 9 52 16 130 35 280 162 344 292 51 105 66 181 62 318 -4 136 -26
216 -84 306 -118 182 -266 258 -562 290 -66 7 -502 12 -533 6z m584 -316 c102
-22 192 -74 230 -134 38 -60 51 -111 51 -193 -1 -113 -51 -213 -131 -263 -85
-53 -164 -70 -326 -70 l-100 -1 0 337 0 337 125 -4 c69 -2 137 -6 151 -9z"/>
<path d="M2854 21434 c-45 -29 -64 -68 -64 -131 0 -48 46 -105 97 -121 23 -8
1227 -10 3836 -9 l3804 2 36 28 c85 65 69 202 -29 243 -28 12 -627 14 -3837
14 l-3803 0 -40 -26z"/>
<path d="M21435 21450 c-57 -25 -93 -85 -90 -147 3 -39 40 -97 75 -115 20 -11
806 -13 4295 -15 4220 -2 4270 -2 4311 17 106 52 106 203 0 254 -31 15 -384
16 -4303 15 -2464 0 -4276 -4 -4288 -9z"/>
<path d="M3019 19216 c-3 -3 -5 -4882 -2 -4891 4 -12 1310 -13 1398 -2 28 4
74 9 103 12 29 3 76 10 105 16 28 6 63 13 77 15 60 12 146 37 219 64 398 146
644 424 735 830 41 182 43 254 43 1540 0 1101 -4 1310 -22 1405 -3 17 -8 44
-11 60 -12 65 -58 204 -90 270 -86 184 -230 348 -400 457 -148 95 -394 180
-589 204 -22 3 -53 8 -70 11 -25 4 -1492 14 -1496 9z m1366 -740 c238 -38 339
-121 402 -333 17 -54 18 -152 20 -1358 2 -1426 4 -1373 -58 -1500 -64 -134
-170 -199 -372 -229 -51 -8 -453 -10 -465 -3 -6 4 -9 647 -9 1720 l0 1713 221
-2 c121 -1 239 -4 261 -8z"/>
<path d="M7950 19197 c-8 -19 -37 -125 -45 -167 -2 -8 -11 -41 -20 -74 -9 -32
-18 -64 -19 -70 -4 -17 -15 -58 -62 -239 -24 -92 -46 -178 -48 -190 -3 -12
-28 -110 -56 -217 -29 -107 -53 -203 -55 -212 -2 -10 -15 -59 -29 -110 -36
-133 -107 -410 -112 -432 -2 -10 -8 -33 -13 -50 -6 -17 -33 -121 -61 -231 -28
-110 -65 -252 -82 -315 -16 -63 -49 -189 -73 -280 -23 -91 -73 -282 -110 -425
-37 -143 -69 -267 -71 -275 -2 -8 -12 -49 -23 -90 -11 -41 -38 -147 -61 -235
-23 -88 -44 -167 -45 -175 -4 -17 -44 -169 -81 -310 -14 -52 -27 -102 -29
-110 -2 -8 -17 -67 -34 -131 -16 -64 -53 -206 -81 -315 -28 -110 -53 -206 -55
-214 -4 -13 48 -15 440 -15 l444 0 17 70 c9 38 27 117 40 175 33 142 84 369
90 400 3 14 10 43 16 65 5 22 12 49 14 60 2 11 17 74 32 140 l28 120 509 3
c280 1 512 -1 516 -5 6 -7 47 -177 104 -438 8 -33 34 -150 60 -260 25 -110 47
-209 49 -220 5 -23 16 -73 22 -95 3 -14 59 -15 449 -15 441 0 446 0 441 20 -3
11 -30 115 -60 230 -30 116 -66 253 -80 305 -52 199 -177 680 -181 700 -5 20
-49 188 -70 265 -9 33 -18 67 -20 75 -1 8 -26 105 -55 215 -28 110 -53 207
-55 215 -2 8 -12 49 -23 90 -12 41 -46 172 -76 290 -31 118 -85 328 -121 465
-36 138 -92 354 -124 480 -33 127 -67 255 -75 285 -8 30 -42 163 -76 295 -60
231 -87 335 -199 766 -28 108 -51 198 -51 201 0 2 -164 5 -366 6 l-365 1 -9
-22z m376 -1600 c1 -8 16 -78 34 -157 18 -79 33 -148 35 -154 1 -6 5 -22 8
-36 3 -14 15 -68 27 -120 12 -52 28 -124 37 -160 8 -36 17 -76 20 -90 2 -13
13 -63 24 -110 12 -47 23 -96 25 -110 3 -14 12 -54 20 -90 9 -36 18 -76 20
-90 7 -37 84 -373 88 -386 5 -12 -682 -16 -690 -3 -2 4 18 106 45 226 67 294
142 623 147 648 2 11 6 32 10 47 3 15 5 30 5 33 0 2 5 19 10 37 5 18 11 44 14
58 6 34 7 37 59 265 25 110 46 204 46 209 0 13 14 -2 16 -17z"/>
<path d="M11038 19215 c-7 -7 -1 -4886 6 -4892 12 -12 2465 -10 2469 2 2 5 3
179 3 385 l-1 375 -786 1 c-433 1 -791 4 -796 7 -6 4 -10 760 -11 2049 0 1124
-1 2050 -1 2059 -1 14 -45 16 -441 16 -241 0 -441 -1 -442 -2z"/>
<path d="M15626 19201 c-5 -15 -119 -450 -201 -766 -20 -77 -52 -201 -71 -275
-20 -74 -50 -193 -69 -265 -18 -71 -60 -233 -93 -360 -59 -226 -75 -288 -231
-890 -43 -165 -98 -374 -121 -465 -23 -91 -60 -232 -82 -315 -22 -82 -41 -157
-43 -165 -3 -15 -56 -219 -111 -430 -26 -99 -65 -246 -133 -510 -22 -85 -56
-217 -76 -293 -20 -76 -34 -141 -31 -145 3 -6 849 -9 877 -3 4 0 15 36 24 79
9 42 25 113 36 157 11 44 21 89 23 100 2 11 30 133 61 270 32 138 58 255 60
260 3 15 19 89 20 95 1 3 5 20 9 38 l8 32 513 0 c481 0 514 -1 519 -17 3 -10
23 -99 46 -198 39 -174 117 -519 126 -560 9 -39 15 -61 37 -160 l22 -100 439
0 c319 0 440 3 443 11 2 7 -12 73 -32 149 -20 75 -38 146 -41 156 -5 25 -7 30
-48 189 -20 74 -60 230 -90 345 -30 116 -64 244 -75 285 -11 41 -40 156 -66
255 -26 99 -57 221 -70 270 -28 104 -182 701 -201 775 -2 8 -19 76 -39 150
-20 74 -37 142 -39 150 -2 8 -23 87 -46 175 -22 88 -43 167 -45 175 -2 8 -20
78 -40 155 -36 137 -40 153 -50 196 -2 12 -11 45 -19 73 -13 46 -37 136 -135
516 -16 63 -41 160 -56 215 -66 254 -109 420 -139 535 l-32 125 -367 1 c-330
1 -367 0 -371 -15z m423 -1821 c28 -124 66 -295 86 -380 19 -85 37 -164 40
-175 2 -11 6 -31 10 -45 3 -14 7 -34 9 -45 2 -11 9 -38 14 -60 6 -22 13 -51
16 -65 2 -14 30 -136 60 -272 31 -135 56 -248 56 -251 0 -2 -157 -4 -349 -4
l-348 0 19 86 c11 47 22 94 24 104 2 9 6 25 8 36 58 259 125 559 161 716 25
110 64 281 86 380 40 181 46 206 49 215 3 10 10 -19 59 -240z"/>
<path d="M18719 19216 c-1 0 -2 -1102 -3 -2448 -1 -1654 2 -2449 9 -2451 5 -2
204 -3 440 -3 l430 1 3 1028 2 1027 48 1 c198 2 356 -1 362 -8 4 -4 89 -235
189 -513 100 -278 185 -512 188 -520 3 -8 7 -19 9 -25 1 -5 39 -109 84 -230
45 -121 108 -294 141 -385 32 -91 76 -212 97 -270 l39 -105 466 0 c334 0 467
3 467 11 0 6 -41 114 -90 240 -50 126 -127 321 -171 434 -45 113 -87 219 -93
235 -7 17 -28 68 -46 115 -17 47 -36 94 -41 105 -13 30 -210 533 -290 740 -38
99 -77 192 -85 208 -8 15 -13 27 -10 27 3 0 -4 19 -14 43 -11 23 -20 47 -20
54 0 6 30 28 68 49 155 86 300 215 389 344 83 122 162 330 189 495 3 20 7 47
10 59 17 88 23 330 11 492 -6 93 -29 237 -48 308 -6 23 -12 48 -14 56 -9 43
-73 201 -102 253 -18 32 -33 61 -33 64 0 2 -21 33 -46 69 -59 82 -167 191
-246 248 -160 113 -402 203 -623 231 -27 4 -61 9 -75 12 -20 5 -1586 14 -1591
9z m1431 -740 c237 -32 370 -129 427 -311 13 -41 20 -78 33 -180 8 -63 5 -404
-4 -465 -29 -185 -83 -292 -181 -360 -59 -40 -180 -79 -273 -87 -42 -4 -183
-7 -312 -7 l-235 -1 -3 700 c-1 385 0 705 2 710 4 12 457 13 546 1z"/>
<path d="M22817 19211 c-3 -6 -1 -4864 2 -4886 1 -12 865 -14 877 -3 4 5 7
624 7 1378 0 753 1 1370 3 1370 1 0 37 -82 79 -182 43 -101 84 -198 91 -215 8
-18 20 -48 28 -65 8 -18 33 -78 56 -133 46 -109 60 -142 83 -195 8 -19 59
-138 112 -265 190 -448 297 -700 310 -730 7 -16 30 -70 50 -120 21 -49 46
-108 56 -130 10 -22 81 -191 159 -375 77 -184 145 -337 150 -340 5 -3 190 -5
412 -5 l403 0 3 2451 2 2452 -440 -1 c-308 0 -440 -3 -443 -11 -2 -6 -3 -626
-3 -1378 1 -753 0 -1368 -2 -1368 -2 0 -12 21 -23 48 -12 26 -27 61 -34 77 -7
17 -74 176 -148 355 -144 348 -388 931 -722 1730 -114 272 -212 507 -218 521
l-10 26 -419 0 c-230 0 -420 -2 -421 -6z"/>
<path d="M28020 19215 c0 -1 -33 -130 -74 -286 -41 -156 -92 -354 -114 -439
-23 -85 -54 -207 -71 -270 -16 -63 -45 -176 -65 -250 -19 -74 -69 -268 -111
-430 -43 -162 -78 -299 -79 -305 -1 -5 -5 -19 -9 -30 -3 -11 -8 -31 -11 -45
-3 -14 -35 -137 -71 -275 -64 -244 -198 -761 -255 -980 -16 -60 -45 -171 -64
-245 -19 -74 -46 -180 -61 -235 -31 -117 -98 -377 -161 -625 -25 -96 -63 -241
-84 -321 -22 -81 -40 -151 -40 -156 0 -4 200 -8 444 -8 l444 0 26 115 c15 63
28 124 31 135 2 11 24 109 49 218 25 108 48 207 50 220 3 12 14 60 24 107 11
47 28 120 38 163 l17 77 515 -2 516 -3 26 -120 c15 -66 46 -203 69 -305 24
-102 44 -192 46 -200 2 -8 9 -37 15 -65 6 -27 13 -57 15 -65 2 -8 10 -45 19
-83 9 -37 18 -80 21 -97 3 -16 9 -40 15 -54 5 -15 6 -26 2 -26 -4 0 -2 -4 5
-8 9 -6 883 -9 889 -3 1 0 -7 34 -18 74 -29 109 -82 313 -128 492 -22 88 -48
185 -56 215 -9 30 -17 62 -19 70 -2 8 -21 85 -43 170 -63 241 -100 382 -143
550 -23 85 -42 162 -44 170 -3 14 -23 89 -145 555 -28 110 -73 283 -100 385
-26 102 -70 273 -98 380 -28 107 -72 276 -97 374 -26 99 -48 186 -50 195 -2 9
-38 147 -80 306 -42 160 -78 297 -80 305 -3 16 -84 326 -139 535 l-31 120
-368 1 c-202 1 -367 0 -367 -1z m506 -2210 c42 -187 78 -347 79 -355 20 -84
125 -558 125 -562 0 -3 -156 -5 -347 -4 -226 1 -347 5 -346 11 1 6 9 42 18 80
8 39 17 79 20 90 2 11 38 171 80 355 79 351 163 721 170 755 13 57 29 131 30
135 1 3 5 23 9 45 4 22 10 47 13 55 6 17 37 -107 149 -605z"/>
<path d="M16025 13318 c-4 -14 -21 -29 -44 -39 -25 -11 -43 -28 -54 -51 -28
-59 -22 -93 24 -143 22 -24 38 -49 34 -55 -3 -6 -11 -7 -17 -4 -6 4 -25 10
-44 14 -88 20 -143 -97 -68 -146 13 -9 44 -17 67 -18 40 -1 42 -2 39 -31 -7
-74 -48 -113 -99 -94 -27 10 -37 29 -69 127 -46 142 -49 157 -31 182 28 40 -4
80 -52 65 -36 -11 -36 -69 0 -80 17 -6 19 -17 17 -132 -1 -112 -3 -127 -22
-144 -21 -20 -29 -23 -61 -19 -26 3 -41 16 -59 50 -14 29 -14 29 24 35 91 15
96 139 8 163 -26 7 -42 5 -71 -10 -22 -11 -40 -18 -42 -16 -20 24 -24 50 -12
75 7 16 13 35 12 43 -1 8 -3 23 -3 32 -2 20 -47 68 -65 69 -7 0 -24 3 -38 5
-32 5 -79 -11 -79 -27 0 -6 10 -25 23 -42 54 -76 105 -188 129 -281 15 -60 21
-122 23 -234 2 -85 5 -156 7 -158 2 -1 33 1 68 6 67 9 155 18 250 25 67 5 425
6 460 1 14 -2 65 -7 114 -11 86 -7 103 -9 174 -20 22 -4 32 -2 32 7 1 7 2 81
4 163 2 83 9 162 15 178 6 15 9 27 6 27 -2 0 7 30 19 68 27 79 79 184 112 228
13 17 24 36 24 43 0 14 -42 31 -75 31 -37 0 -92 -37 -101 -68 -13 -48 -13 -55
1 -83 12 -23 13 -33 2 -58 -9 -22 -16 -28 -24 -20 -6 6 -28 16 -49 24 -33 11
-43 11 -66 -1 -15 -8 -32 -23 -38 -33 -12 -23 -13 -71 -2 -87 14 -20 57 -44
80 -44 24 0 24 0 7 -27 -38 -62 -80 -73 -123 -33 -16 15 -19 33 -20 138 -1
115 0 121 24 141 28 24 30 43 8 65 -20 20 -48 20 -65 0 -20 -24 -19 -41 2 -60
10 -9 16 -20 14 -25 -3 -4 -21 -61 -41 -126 -38 -125 -46 -141 -79 -153 -43
-16 -81 12 -91 68 -14 74 -14 71 14 63 94 -27 163 69 97 134 -13 14 -30 25
-37 26 -7 0 -21 2 -30 4 -9 2 -28 -3 -42 -10 -39 -20 -42 1 -6 37 54 54 63
104 30 161 -11 18 -36 41 -56 50 -20 10 -38 27 -41 37 -7 27 -41 26 -48 -2z"/>
<path d="M10258 12685 c-1 -2 -53 -6 -113 -10 -230 -13 -457 -49 -720 -114
-238 -59 -350 -94 -1120 -357 -250 -86 -515 -164 -598 -178 -18 -3 -48 -10
-67 -16 -19 -6 -53 -13 -75 -16 -22 -2 -56 -9 -75 -14 -19 -5 -59 -12 -89 -15
-30 -4 -62 -8 -71 -10 -9 -2 -53 -6 -96 -10 -43 -4 -90 -8 -103 -10 -146 -24
-824 -23 -1016 0 -16 2 -64 7 -105 11 -41 3 -84 8 -95 10 -11 3 -49 9 -85 14
-36 5 -76 12 -90 15 -14 2 -50 10 -80 16 -250 49 -592 186 -774 310 -124 84
-245 217 -270 297 -12 37 -25 25 -15 -14 63 -226 294 -442 659 -617 137 -65
163 -76 273 -113 173 -59 415 -114 612 -140 28 -3 58 -8 67 -9 9 -2 52 -7 95
-10 43 -4 86 -9 95 -10 122 -24 864 -23 983 0 11 2 43 7 70 10 355 42 652 125
1500 420 522 181 897 267 1315 300 30 2 91 7 135 10 44 4 114 8 155 10 96 5
639 5 705 1 28 -2 100 -7 160 -11 61 -3 121 -8 135 -10 14 -2 54 -6 90 -10 36
-3 82 -8 103 -10 112 -14 127 -16 227 -30 37 -5 332 -54 355 -59 11 -3 61 -13
110 -25 50 -11 104 -22 120 -26 28 -5 170 -41 310 -79 101 -28 287 -88 334
-108 82 -35 52 -11 -56 44 -370 189 -824 342 -1313 442 -213 43 -346 65 -490
81 -36 4 -78 9 -95 11 -16 2 -66 6 -110 10 -44 3 -96 8 -115 11 -41 6 -766 13
-772 8z"/>
<path d="M21159 12686 c-2 -2 -51 -6 -109 -10 -58 -4 -141 -11 -185 -16 -44
-5 -109 -12 -145 -15 -36 -3 -77 -8 -92 -11 -15 -3 -39 -7 -55 -9 -192 -24
-597 -112 -818 -177 -225 -65 -546 -186 -730 -272 -91 -44 -237 -124 -200
-111 11 4 58 21 105 37 109 39 375 116 492 143 13 3 61 14 108 25 47 11 99 22
115 25 17 3 37 8 46 11 10 2 30 7 45 9 16 2 40 7 54 10 14 3 41 8 60 11 19 2
46 7 60 10 14 2 34 6 45 8 11 2 55 9 98 16 43 6 88 13 100 15 12 2 47 6 77 10
30 3 69 7 85 9 17 3 63 7 103 11 41 4 86 8 101 10 27 4 168 13 296 21 73 4
616 4 700 0 93 -5 257 -17 290 -21 17 -2 65 -7 107 -10 42 -3 87 -8 100 -10
13 -3 45 -7 73 -10 27 -3 57 -7 65 -10 8 -2 31 -6 50 -9 125 -20 376 -80 545
-132 83 -25 155 -47 160 -48 6 -2 17 -6 25 -9 8 -3 110 -38 225 -77 646 -221
847 -283 1110 -345 36 -8 169 -34 205 -40 19 -3 46 -7 60 -10 136 -24 389 -39
655 -39 192 0 416 9 476 19 13 2 60 6 103 10 43 4 86 8 95 10 15 3 78 11 151
21 183 24 491 107 668 180 434 180 725 428 787 672 19 75 14 93 -8 28 -106
-310 -721 -602 -1412 -671 -38 -4 -77 -9 -86 -10 -124 -23 -852 -23 -1024 0
-16 2 -61 7 -100 10 -90 8 -162 18 -250 35 -27 5 -61 12 -75 14 -160 28 -450
109 -731 205 -112 38 -321 110 -464 158 -418 143 -822 254 -1010 278 -11 1
-45 5 -75 9 -30 4 -66 9 -80 11 -27 5 -128 15 -217 21 -75 6 -769 15 -774 10z"/>
<path d="M14401 12663 c21 -27 93 -116 104 -129 6 -6 24 -29 41 -50 17 -22 77
-95 134 -164 l102 -125 201 -68 c111 -37 212 -69 224 -71 12 -3 110 -64 218
-138 107 -73 203 -137 213 -143 9 -5 19 -12 22 -15 3 -3 61 -43 130 -89 69
-46 131 -90 139 -97 11 -10 -19 -34 -178 -139 l-192 -127 -197 -50 c-108 -27
-204 -52 -212 -53 -148 -33 -426 -128 -524 -179 -101 -52 -139 -97 -140 -164
-1 -45 9 -155 20 -217 4 -28 0 -33 -56 -69 l-60 -38 37 -47 c20 -25 40 -50 44
-54 4 -5 31 7 60 27 63 42 67 43 119 16 22 -11 40 -18 40 -14 0 4 6 2 13 -3
27 -21 145 -56 188 -56 110 0 232 115 494 465 61 81 139 188 174 239 71 101
62 93 315 264 132 89 180 117 191 110 242 -162 402 -275 417 -295 11 -14 72
-97 135 -185 307 -426 461 -584 581 -600 27 -3 160 38 279 86 30 12 35 11 88
-26 31 -21 59 -34 64 -29 4 5 24 30 44 55 l37 47 -60 38 c-57 37 -59 41 -55
74 2 19 8 62 12 95 14 119 10 161 -23 202 -60 75 -268 159 -634 257 -157 41
-206 54 -240 61 -135 28 -167 43 -350 163 -101 67 -189 123 -194 126 -21 7
-31 1 519 370 l180 121 224 74 c175 57 229 79 247 100 35 39 69 81 214 261 73
91 140 173 147 182 22 25 37 29 -407 -112 l-205 -65 -137 -169 c-76 -93 -138
-172 -138 -176 0 -5 -17 -19 -37 -31 -21 -13 -192 -125 -380 -250 l-343 -226
-327 216 c-181 119 -350 231 -378 248 -27 18 -56 42 -63 53 -18 30 -210 268
-247 307 -26 28 -66 43 -333 127 -166 53 -305 96 -309 96 -3 0 1 -8 8 -17z"/>
<path d="M4590 12650 c0 -5 5 -10 11 -10 5 0 7 5 4 10 -3 6 -8 10 -11 10 -2 0
-4 -4 -4 -10z"/>
</g>
</svg>
